# xmcd
# 
# Track frame offsets:
#     150
#     16007
#     38772
#     50642
#     64557
#     81067
#     94962
#     115325
#     136837
#     154375
#     171530
#     189962
# 
# Disc length: 2964
# 
# Revision: 9
# Processed by: cddbd v1.5.2PL0 Copyright (c) Steve Scherf et al.
# Submitted via: fre:ac v1.0.17
# 
DISCID=990b920c
DTITLE=BOOWY - ''GIGS'' Just A Hero Tour 1986
DYEAR=1986
DGENRE=Rock
TTITLE0=Prologue
TTITLE1=Bad Feeling
TTITLE2=Rouge of Gray
TTITLE3=Blue Vacation
TTITLE4=Justy
TTITLE5=Baby Action
TTITLE6=ホンキー・トンキー・クレイジー
TTITLE7=わがままジュリエット
TTITLE8=Dreamin'
TTITLE9=Image Down
TTITLE10=No. New York
TTITLE11=Just A Hero
EXTD=
EXTT0=
EXTT1=
EXTT2=
EXTT3=
EXTT4=
EXTT5=
EXTT6=
EXTT7=
EXTT8=
EXTT9=
EXTT10=
EXTT11=
PLAYORDER=
